<svg 
          width="17.000001907348633" 
          height="20" fill="none" 
          xmlns="http://www.w3.org/2000/svg">
          <path d="M 9.663859497952002 17.085031509399414 C 10.161206670223182 17.099706209264696 10.649488302832447 17.220997139811516 11.095274262739407 17.44059944152832 L 11.122113522037312 17.44059944152832 C 11.494555153656439 17.744457632303238 11.557844207044816 18.28683629631996 11.26525528461838 18.667306900024414 C 10.732501340052677 19.42971247434616 9.880080556738173 19.910427898168564 8.948151638721088 19.974018096923828 C 7.990690412598723 20.08819619566202 7.026490403791272 19.823139011859894 6.2642476434423715 19.236215591430664 C 5.8722348245154175 18.967395097017288 5.617480688487298 18.542272478342056 5.566432623743394 18.071731567382812 C 5.566432623743394 17.573936760425568 6.031642845492326 17.342818178236485 6.461067447782036 17.245037078857422 C 6.964038736151297 17.139094181358814 7.476743940941653 17.085469909390667 7.9908923531578795 17.085031509399414 L 9.663859497952002 17.085031509399414 Z M 8.536619190509821 0 C 11.632054918743986 0 14.825900608752638 2.240076780319214 15.156915457884145 5.48463249206543 C 15.210593562972685 6.151322066783905 15.156915871391412 6.844679236412048 15.210593976479952 7.520257949829102 C 15.38623949660837 8.391475081443787 15.790554030143767 9.20107364654541 16.38256447540313 9.867005348205566 C 16.75062450948857 10.414284467697144 16.96383233707643 11.049819946289062 16.999933242790146 11.70706844329834 L 16.999933242790146 11.911520004272461 C 17.005367643336218 12.79838752746582 16.68757727217118 13.657255411148071 16.105228323681384 14.329380989074707 C 15.367137070081974 15.118569195270538 14.365679564552078 15.614519268274307 13.287128985587568 15.724984169006348 C 10.100549400615497 16.133860766887665 6.874279555071526 16.133860766887665 3.6876999700994553 15.724984169006348 C 2.596449547257059 15.622908771038055 1.5808982238655143 15.126285195350647 0.8338154893836297 14.329380989074707 C 0.26972749875320756 13.650809586048126 -0.026073136149016855 12.79119873046875 0.0018053265218517963 11.911520004272461 L 0.0018053265218517963 11.70706844329834 C 0.03671795390400384 11.052276015281677 0.24335521209718863 10.41793805360794 0.6012105424219552 9.867005348205566 C 1.1958512217410688 9.20045918226242 1.605882571508732 8.391761660575867 1.7910745961328838 7.520257949829102 C 1.8447526714190976 6.844679236412048 1.7910745626052673 6.160211205482483 1.8447526378914811 5.48463249206543 C 2.1847137875796534 2.240076780319214 5.315934777645132 0 8.447155946524564 0 L 8.536619190509821 0 Z" fill="rgb(56.000000461936,99.00000169873238,99.00000169873238)"/>
        </svg>