<svg 
          width="17" 
          height="18" fill="none" 
          xmlns="http://www.w3.org/2000/svg">
          <path d="M 5.936382042734246 16.89596220247524 L 5.936382042734246 14.144031919079636 C 5.936382042734246 13.441582325745205 6.5066785341814946 12.872063042413878 7.21014750631232 12.872063042413878 L 9.781800019113641 12.872063042413878 C 10.119652663406573 12.872063042413878 10.443636478562105 13.006072565418682 10.682531206231369 13.244662430956403 C 10.921425933900633 13.48316228161109 11.0556371588456 13.806712115142565 11.0556371588456 14.144031919079636 L 11.0556371588456 16.89596220247524 C 11.053489790322553 17.18801203042772 11.168195132362214 17.46890142104306 11.374253022043328 17.676171297356817 C 11.580310911724442 17.883441173670573 11.860720251735888 17.999991416936062 12.153120241667095 17.999991416936062 L 13.907610843056126 17.999991416936062 C 14.727010821041308 18.00206141579753 15.513662956262891 17.678510879653427 16.09381033244886 17.100711192677768 C 16.67395770863483 16.52291150570211 17 15.73829339816471 17 14.92001385497254 L 17 7.080171586892173 C 17 6.4192119881847445 16.70661659617173 5.792254143617166 16.19885344254343 5.368201378897831 L 10.23042106628418 0.6082836723611799 C 9.192257893712897 -0.2262948410254435 7.704668170527408 -0.1993488482386504 6.6974539505807975 0.6722826448730593 L 0.8652194926613256 5.368201378897831 C 0.3335042376267283 5.779753152392491 0.015702632402903156 6.408573977809537 0 7.080171586892173 L 0 14.912002423094316 C 0 16.61750143003382 1.384497975048266 17.999991416936062 3.0923627050299394 17.999991416936062 L 4.8067859097530965 17.999991416936062 C 5.414258539676666 17.999991416936062 5.907947093542469 17.510571592957536 5.9123491989938834 16.903971917740677 L 5.936382042734246 16.89596220247524 Z" fill="rgb(255,255,255)"/>
        </svg>