<svg 
          width="20" 
          height="20" fill="none" 
          xmlns="http://www.w3.org/2000/svg">
          <path d="M 10 8.899999618530273 C 9.389999985694885 8.899999618530273 8.899999618530273 9.389999985694885 8.899999618530273 10 C 8.899999618530273 10.610000014305115 9.389999985694885 11.100000381469727 10 11.100000381469727 C 10.610000014305115 11.100000381469727 11.100000381469727 10.610000014305115 11.100000381469727 10 C 11.100000381469727 9.389999985694885 10.610000014305115 8.899999618530273 10 8.899999618530273 Z M 10 0 C 4.480000019073486 0 0 4.480000019073486 0 10 C 0 15.519999980926514 4.480000019073486 20 10 20 C 15.519999980926514 20 20 15.519999980926514 20 10 C 20 4.480000019073486 15.519999980926514 0 10 0 Z M 12.1899995803833 12.1899995803833 L 4 16 L 7.810000419616699 7.810000419616699 L 16 4 L 12.1899995803833 12.1899995803833 Z" fill="rgb(56.000000461936,99.00000169873238,99.00000169873238)"/>
        </svg>